<svg xmlns="http://www.w3.org/2000/svg" viewBox="0 0 100 100">
  <!-- Stem -->
  <path d="M45 85 C45 85, 50 70, 50 60" stroke="#2D5A27" stroke-width="4" fill="none"/>
  <path d="M55 85 C55 85, 50 70, 50 60" stroke="#2D5A27" stroke-width="4" fill="none"/>
  
  <!-- Leaves -->
  <path d="M30 75 C20 70, 20 60, 30 55 C40 60, 40 70, 30 75" fill="#3A7A34"/>
  <path d="M70 75 C80 70, 80 60, 70 55 C60 60, 60 70, 70 75" fill="#3A7A34"/>
  
  <!-- Petals -->
  <path d="M50 20 L40 5 L50 10 L60 5 L50 20" fill="#FFD700"/>
  <path d="M70 25 L75 5 L65 15 L70 5 L70 25" fill="#FFD700"/>
  <path d="M85 45 L95 30 L85 35 L90 25 L85 45" fill="#FFD700"/>
  <path d="M85 55 L95 70 L85 65 L90 75 L85 55" fill="#FFD700"/>
  <path d="M70 75 L75 95 L65 85 L70 95 L70 75" fill="#FFD700"/>
  <path d="M50 80 L40 95 L50 90 L60 95 L50 80" fill="#FFD700"/>
  <path d="M30 75 L25 95 L35 85 L30 95 L30 75" fill="#FFD700"/>
  <path d="M15 55 L5 70 L15 65 L10 75 L15 55" fill="#FFD700"/>
  <path d="M15 45 L5 30 L15 35 L10 25 L15 45" fill="#FFD700"/>
  <path d="M30 25 L25 5 L35 15 L30 5 L30 25" fill="#FFD700"/>
  
  <!-- Face -->
  <circle cx="50" cy="50" r="20" fill="#8B4513"/>
  <circle cx="50" cy="50" r="15" fill="#654321"/>
  
  <!-- Eyes -->
  <ellipse cx="42" cy="45" rx="4" ry="5" fill="white"/>
  <ellipse cx="58" cy="45" rx="4" ry="5" fill="white"/>
  <circle cx="42" cy="45" r="2" fill="black"/>
  <circle cx="58" cy="45" r="2" fill="black"/>
  <circle cx="43" cy="44" r="1" fill="white"/>
  <circle cx="59" cy="44" r="1" fill="white"/>
  
  <!-- Smile -->
  <path d="M42 55 Q50 60 58 55" fill="none" stroke="white" stroke-width="2"/>
  
  <!-- Cheeks -->
  <circle cx="38" cy="52" r="3" fill="#CD853F" opacity="0.5"/>
  <circle cx="62" cy="52" r="3" fill="#CD853F" opacity="0.5"/>
</svg>
